<svg width="39" height="30" viewBox="0 0 39 30" fill="none" xmlns="http://www.w3.org/2000/svg">
<path d="M22.5608 1.98657C22.9804 2.10252 23.7883 2.64785 24.2191 2.8963L27.289 4.65674L33.0253 7.95023L35.3322 9.2659C35.6742 9.46022 36.2656 9.71851 36.491 10.0109C36.5408 11.3313 36.487 12.8243 36.5036 14.1633C36.5104 14.7013 36.5367 16.9029 36.4454 17.2295C36.183 17.503 35.4958 17.8361 35.1304 18.0468L33.0247 19.2672L20.0827 26.7805C19.1112 27.3534 18.1049 27.8809 17.1432 28.4708C17.0143 28.5498 16.4477 28.8602 16.3636 28.9334C16.1745 28.9105 14.0308 27.6608 13.6924 27.4668L8.82608 24.6763C6.91368 23.5912 4.99966 22.5056 3.0963 21.4048C2.81984 21.245 2.55795 21.1024 2.29327 20.9198C2.23147 20.6405 2.25076 19.8238 2.25137 19.4999L2.25165 17.1319L2.25123 14.9108C2.25124 14.5613 2.23464 13.9646 2.27894 13.6355C2.54434 13.4176 3.63791 12.8329 3.98297 12.6371L6.96653 10.909L17.9622 4.56923L20.9304 2.87203C21.3181 2.64955 22.1747 2.08484 22.5608 1.98657Z" fill="#201F1F"/>
<path d="M36.4917 10.0107C36.5415 11.3312 36.4876 12.8241 36.5043 14.1632C36.511 14.7011 36.5374 16.9027 36.446 17.2294C36.1837 17.5029 35.4965 17.8359 35.1311 18.0467L33.0253 19.267L20.0834 26.7803C19.1119 27.3532 18.1056 27.8808 17.1438 28.4706C17.015 28.5497 16.4484 28.8601 16.3642 28.9333C16.3842 28.5586 16.3216 27.843 16.3172 27.4187C16.3073 26.1382 16.3051 24.8577 16.3104 23.5772C16.3122 23.0598 16.3044 22.0709 16.3968 21.5798C16.7281 21.282 17.6215 20.8964 18.0407 20.6165C18.4043 20.3737 18.8514 20.2244 19.23 19.9235C19.5736 19.6503 20.1364 19.4072 20.5256 19.1903L23.4682 17.5172L30.9453 13.1336C31.246 12.9584 31.5652 12.8174 31.8679 12.6483C33.3735 11.8079 34.8043 10.8394 36.3869 10.1431C36.461 10.1106 36.4662 10.0768 36.4917 10.0107Z" fill="#0D0D0D"/>
<path d="M25.1129 9.64915C26.0059 9.52736 28.0576 10.5425 28.4556 11.4171C28.5754 11.6804 28.5267 11.8899 28.4256 12.1393C28.0467 12.409 27.773 12.5501 27.3085 12.5859C26.3872 12.6243 25.4746 12.1647 24.738 11.6482C24.1793 11.2563 23.3135 10.3595 24.3153 9.89363C24.5661 9.777 24.8364 9.68105 25.1129 9.64915Z" fill="#F2F2F4"/>
<path d="M25.0745 10.0826C25.4275 10.0678 25.8591 10.1843 26.1823 10.3226C26.6447 10.5204 28.8453 11.7886 27.3477 12.1691C26.6161 12.206 25.5418 11.607 24.9914 11.1612C24.4441 10.718 24.2623 10.3234 25.0745 10.0826Z" fill="#201F1F"/>
<path d="M27.9831 8.12375C28.1444 8.10597 28.4158 8.11646 28.5759 8.13829C29.6436 8.28984 30.609 8.85588 31.2628 9.71399C31.4235 10.714 30.5808 10.7236 29.9469 11.2571L29.7467 11.1197C28.5938 10.4892 27.34 9.57732 26.1641 8.94407C26.6746 8.58134 27.3555 8.21094 27.9831 8.12375Z" fill="#F2F2F4"/>
<path d="M28.1453 8.53511C28.9226 8.48874 30.4429 9.29449 30.6352 10.0998C30.4751 10.3106 30.1047 10.733 29.8198 10.587C29.0386 10.0104 28.0164 9.50912 27.168 8.94011C27.5709 8.64574 27.6501 8.60267 28.1453 8.53511Z" fill="#201F1F"/>
<path d="M14.9374 15.3857C15.2518 15.5389 15.5997 15.7581 15.907 15.9337C16.8753 16.4869 17.8077 17.1155 18.757 17.6962C18.5524 17.7907 18.4222 17.8483 18.2354 17.9726C17.45 17.5036 16.6744 16.996 15.894 16.5172C15.7201 16.4105 15.5907 16.273 15.3939 16.2022C15.7339 16.5443 17.2087 18.1279 17.3642 18.4619L17.3386 18.4975C17.1789 18.5516 16.9068 18.4745 16.7512 18.4137C16.0696 18.1473 15.3805 17.9064 14.6836 17.6833C14.3356 17.5719 13.9959 17.4287 13.6402 17.3407C13.771 17.4283 13.9346 17.5163 14.0731 17.5953C14.4231 17.7865 16.221 18.85 16.4043 19.0464C16.251 19.1639 16.125 19.1693 15.9768 19.308C15.6336 19.1335 15.1411 18.8122 14.8007 18.6044L13.0417 17.5433C12.7522 17.3667 12.4098 17.141 12.1133 16.9901C12.3845 16.8724 12.6251 16.72 12.8674 16.5521C13.2415 16.7309 13.6807 16.8765 14.0753 17.0181L16.1393 17.7359C15.8254 17.3884 15.469 17.0507 15.1523 16.7C14.8675 16.3846 14.6014 16.0648 14.3212 15.747C14.4963 15.62 14.7429 15.498 14.9374 15.3857Z" fill="#F2F2F4"/>
<path d="M16.2216 7.67066C16.3057 7.6672 20.4754 9.28978 20.9332 9.45062C20.7371 9.55471 20.5446 9.6656 20.3562 9.78308C20.0412 9.63414 19.6858 9.52175 19.3995 9.34046C19.2142 9.47819 19.1478 9.52594 18.94 9.62368C18.7372 9.72396 18.5081 9.88377 18.3155 10.0104C18.4519 10.1152 18.7776 10.4626 18.913 10.6003C18.7346 10.7223 18.5901 10.8164 18.4314 10.9636L15.6396 8.01771C15.8028 7.94166 16.0605 7.77115 16.2216 7.67066Z" fill="#F2F2F4"/>
<path d="M16.46 8.1958C16.6953 8.21666 18.5409 9.00589 18.8612 9.15524L18.5186 9.3111C18.3542 9.3808 18.1245 9.56089 17.9277 9.66387C17.6034 9.29016 16.8345 8.51789 16.46 8.1958Z" fill="#201F1F"/>
<path d="M10.2279 11.16C10.3405 11.0961 10.6558 10.8921 10.7715 10.9514C12.0212 11.5916 13.238 12.5132 14.4615 13.1832C14.2719 13.2811 14.1285 13.3717 13.9748 13.5254C13.6088 13.188 12.6873 12.715 12.2423 12.3965C12.034 12.5783 11.333 12.9475 11.0578 13.1156C11.4673 13.288 12.4279 13.9139 12.7961 14.1987C12.5694 14.2751 12.492 14.3257 12.3127 14.4848C12.0687 14.2878 11.6665 14.0518 11.392 13.8807C10.8264 13.5288 10.2588 13.1799 9.6894 12.8341C9.41816 12.6699 9.06839 12.4798 8.81617 12.3072C8.75193 12.26 8.57321 12.1832 8.49316 12.146C8.68155 12.0341 8.92641 11.863 9.14103 11.8647C9.58074 12.1884 10.2792 12.5526 10.6448 12.8498C10.8619 12.6533 11.5372 12.2445 11.8111 12.1478C11.4475 11.9159 11.0821 11.6868 10.7149 11.4606C10.5831 11.3787 10.3547 11.2218 10.2279 11.16Z" fill="#F2F2F4"/>
<path d="M8.49316 12.1459C8.68155 12.0339 8.92641 11.8628 9.14103 11.8645C8.9715 11.9471 8.82645 12.1104 8.81617 12.307C8.75193 12.2599 8.57321 12.183 8.49316 12.1459Z" fill="#DDEDF3"/>
<path d="M22.5041 11.0132C22.6136 11.0166 25.7465 13.0906 26.3499 13.3297C26.1213 13.4614 25.9643 13.5192 25.7175 13.6083C25.2081 13.2422 24.6226 12.9264 24.0973 12.5615C23.8561 12.6632 23.2016 13.0528 22.9438 13.2018C23.3589 13.5437 24.2759 14.0027 24.5648 14.2735C24.5373 14.3558 24.4664 14.391 24.392 14.4443C24.3377 14.4775 24.2162 14.5308 24.1537 14.5604C23.8981 14.4504 22.9278 13.8305 22.6428 13.6424C22.0296 13.2378 20.9229 12.6801 20.4297 12.2373C20.5803 12.1512 20.7247 12.0411 20.8657 11.939C21.0414 12.0879 22.1764 12.7906 22.4175 12.9237C22.5987 12.8616 23.3793 12.4074 23.5902 12.2909C23.0723 11.9317 22.5339 11.6323 22.0482 11.2905C22.2209 11.1953 22.3411 11.1238 22.5041 11.0132Z" fill="#F2F2F4"/>
<path d="M17.4006 13.9424C17.4946 13.946 17.7877 14.1815 17.8758 14.2471C17.4981 14.4051 17.0125 14.7138 16.6627 14.9301C16.947 15.1219 17.5291 15.513 17.8359 15.5894C18.163 15.4849 18.6301 15.1138 18.9659 15.0113C19.0466 14.9866 19.2995 15.2231 19.3806 15.2945C19.0058 15.497 18.675 15.702 18.3094 15.9062C18.5424 16.088 19.2417 16.5318 19.5017 16.6484C19.9039 16.4827 20.2493 16.203 20.7227 16.0085C20.8391 15.99 21.0821 16.1766 21.1957 16.2501C20.9843 16.4124 19.712 17.1405 19.4584 17.2589C19.1322 17.0946 18.7059 16.7813 18.3804 16.5863C17.5187 16.0702 16.5823 15.4092 15.6992 14.9407C16.1821 14.648 16.998 14.2311 17.4006 13.9424Z" fill="#F2F2F4"/>
<path d="M13.2005 9.46753C13.3529 9.51341 13.4758 9.61659 13.6051 9.71052C13.2879 9.93566 12.7319 10.237 12.3752 10.4482C12.7651 10.6608 13.1561 10.9277 13.5404 11.1591C13.9098 10.9266 14.2848 10.6738 14.6882 10.5125C14.8008 10.5639 15.0652 10.6599 15.0731 10.7893C14.9186 10.9192 14.1447 11.3085 13.9327 11.4194C14.3797 11.6672 14.8446 11.9189 15.2537 12.2243C15.5067 11.9927 16.0205 11.7266 16.3303 11.5819C16.5946 11.4459 16.7105 11.6163 16.902 11.7902C16.499 11.9743 15.6285 12.5335 15.1861 12.7821C15.0142 12.6385 14.2606 12.1884 14.0458 12.0545L11.4219 10.4361C11.9887 10.1122 12.6193 9.75892 13.2005 9.46753Z" fill="#F2F2F4"/>
<path d="M19.3696 6.01826C19.7267 5.98354 20.1362 6.03425 20.4483 6.21941C20.3421 6.31064 20.2492 6.41825 20.1549 6.52199C19.8435 6.39496 19.5395 6.30997 19.2138 6.43433C19.002 6.51519 18.743 6.76896 18.8858 7.0065C19.2366 7.58998 20.0011 7.98783 20.6071 8.24869C20.9847 8.38627 21.5662 8.53802 21.9481 8.3616C22.3237 8.18813 22.1554 7.82968 22.029 7.58239C22.1681 7.55303 22.4757 7.47176 22.5993 7.49008C22.806 7.71874 22.9646 8.19877 22.7063 8.43437C21.6392 9.40738 19.8541 8.61844 18.8936 7.86247C17.8447 7.03697 17.9212 6.12581 19.3696 6.01826Z" fill="#F2F2F4"/>
<path d="M8.01946 12.4512C8.11991 12.4304 8.3668 12.6276 8.48362 12.7024C8.21422 12.8436 7.95358 12.9728 7.70371 13.1476C8.06727 13.3337 8.6111 13.7023 8.97434 13.9281L11.0222 15.1877C10.8829 15.2633 10.6566 15.4246 10.5179 15.5178C10.3366 15.3307 10.0211 15.1544 9.79161 15.0145C9.07808 14.5665 8.34332 14.1478 7.6342 13.6916C7.4965 13.603 7.36556 13.5259 7.21176 13.4671C6.86448 13.5575 6.69302 13.7059 6.39923 13.9041L6.01172 13.5648C6.61323 13.2061 7.39139 12.7533 8.01946 12.4512Z" fill="#F2F2F4"/>
<path d="M19.8308 12.5671C19.9951 12.6152 20.1642 12.7334 20.2997 12.8361C20.0148 12.9527 19.8408 13.0982 19.5976 13.2787C19.9294 13.4673 20.2665 13.7033 20.5998 13.9026C21.3625 14.3587 22.122 14.8161 22.8645 15.3051C22.2273 15.7092 22.1829 15.4792 21.5911 15.0993C21.1149 14.7921 19.3691 13.7971 19.1076 13.5048C18.7998 13.6941 18.6726 13.8218 18.3177 13.9554C18.1547 13.8755 18.03 13.7754 17.8848 13.6677C18.4662 13.3086 19.2307 12.8791 19.8308 12.5671Z" fill="#F2F2F4"/>
<path d="M21.9443 4.39516C22.0402 4.37934 22.3587 4.58202 22.4632 4.64152C22.2406 4.73917 21.9381 4.96809 21.685 5.0992C21.985 5.23431 22.5972 5.61843 22.8913 5.79652C23.5942 6.22619 24.2998 6.65149 25.0079 7.07243C24.3759 7.52665 24.3609 7.24317 23.7708 6.91314C23.2822 6.6306 21.5781 5.64605 21.2338 5.30504C20.9481 5.51826 20.8495 5.60841 20.5307 5.78841C20.3085 5.68382 20.2221 5.61796 20.0361 5.46889C20.4479 5.2751 21.5669 4.64521 21.9443 4.39516Z" fill="#F2F2F4"/>
</svg>
