<svg width="56" height="20" viewBox="0 0 56 20" fill="none" xmlns="http://www.w3.org/2000/svg">
<path d="M55.0449 0V19.1162H0V0H55.0449ZM42.3281 3.33301C41.4278 3.33301 40.6142 3.49419 39.8896 3.81641C39.1763 4.13859 38.5721 4.583 38.0781 5.14941C37.5842 5.71603 37.2049 6.38386 36.9414 7.15039C36.6781 7.9056 36.5479 8.72784 36.5479 9.61621C36.5479 10.4825 36.6781 11.2936 36.9414 12.0488C37.2049 12.7931 37.5843 13.4436 38.0781 13.999C38.572 14.5543 39.1762 14.9933 39.8896 15.3154C40.6142 15.6265 41.4278 15.7832 42.3281 15.7832C43.0528 15.7832 43.7173 15.6714 44.3213 15.4492C44.925 15.227 45.4523 14.9046 45.9023 14.4824C46.3526 14.0603 46.7147 13.5491 46.9893 12.9492C47.2637 12.3493 47.4331 11.677 47.499 10.9326H44.9961C44.8973 11.7326 44.6231 12.3773 44.1729 12.8662C43.7338 13.355 43.1187 13.5986 42.3281 13.5986C41.7462 13.5986 41.2511 13.4888 40.8447 13.2666C40.4387 13.0333 40.1099 12.7263 39.8574 12.3486C39.6051 11.971 39.4186 11.5485 39.2979 11.082C39.1881 10.6045 39.1319 10.1159 39.1318 9.61621C39.1318 9.09401 39.188 8.5875 39.2979 8.09863C39.4186 7.61013 39.6051 7.17637 39.8574 6.79883C40.1099 6.41034 40.439 6.10393 40.8447 5.88184C41.2511 5.6485 41.7462 5.53223 42.3281 5.53223C42.6465 5.53223 42.948 5.58914 43.2334 5.7002C43.5299 5.8002 43.7948 5.94391 44.0254 6.13281C44.2556 6.32144 44.4471 6.54377 44.6006 6.79883C44.7542 7.04302 44.8525 7.31561 44.8965 7.61523H47.4014C47.3244 6.92693 47.1378 6.31619 46.8418 5.7832C46.5453 5.24993 46.1652 4.80574 45.7041 4.4502C45.2542 4.0837 44.7388 3.80509 44.1572 3.61621C43.5862 3.42733 42.9759 3.33301 42.3281 3.33301ZM7.74121 3.61621L3.29395 15.5156H5.89648L6.82031 12.8662H11.2178L12.1064 15.5156H14.791L10.3936 3.61621H7.74121ZM15.707 12.9492V15.5156H18.293V12.9492H15.707ZM20.4883 3.61621V15.5156H23.0732V10.8662H25.6602C26.307 10.8663 26.773 11.0106 27.0586 11.2988C27.344 11.5877 27.5323 12.0438 27.6201 12.666C27.686 13.1437 27.7356 13.6448 27.7686 14.167C27.8015 14.6887 27.8897 15.1382 28.0322 15.5156H30.6172C30.4965 15.349 30.4028 15.1482 30.3369 14.915C30.2823 14.6709 30.2378 14.4148 30.2051 14.1484C30.183 13.8822 30.1681 13.6214 30.1572 13.3662C30.1462 13.1107 30.1339 12.8871 30.123 12.6982C30.101 12.3987 30.057 12.0984 29.9912 11.7988C29.9364 11.4994 29.8432 11.2275 29.7119 10.9834C29.5801 10.7278 29.4099 10.5098 29.2012 10.332C28.9925 10.1432 28.7286 10.0039 28.4102 9.91504V9.88281C29.0689 9.61615 29.5416 9.22691 29.8271 8.71582C30.1235 8.20479 30.2715 7.59925 30.2715 6.89941C30.2715 6.4441 30.1899 6.02153 30.0254 5.63281C29.8717 5.23318 29.64 4.88282 29.333 4.58301C29.0366 4.28322 28.6741 4.04843 28.2461 3.88184C27.8289 3.70405 27.3562 3.61621 26.8291 3.61621H20.4883ZM32.2754 12.9492V15.5156H34.8613V12.9492H32.2754ZM49.167 12.9492V15.5156H51.752V12.9492H49.167ZM9.05859 6.5498L10.542 10.916H7.49414L9.02637 6.5498H9.05859ZM25.9072 5.64941C26.4998 5.64948 26.9447 5.78322 27.2412 6.0498C27.5374 6.30539 27.6865 6.72225 27.6865 7.2998C27.6864 7.89928 27.5372 8.33202 27.2412 8.59863C26.9447 8.86523 26.4998 8.99896 25.9072 8.99902H23.0732V5.64941H25.9072Z" fill="#0D0C0C"/>
</svg>
