<svg width="25" height="25" viewBox="0 0 25 25" fill="none" xmlns="http://www.w3.org/2000/svg">
<g clip-path="url(#clip0_280_1173)">
<path d="M8.28282 14.3637C8.26482 14.3234 8.24823 14.2824 8.23311 14.2409C8.00174 13.5912 8.56535 13.0944 9.12443 13.3427C9.67156 13.7016 10.071 14.2314 10.5336 14.6988C10.9196 15.0888 11.4765 15.5386 11.7834 15.9895C11.9259 16.1988 11.7624 16.5715 11.7013 16.7825L11.5037 16.9372C11.1166 16.9919 11.0801 16.9915 10.7242 16.8251C10.7241 16.8604 10.7219 16.8956 10.7177 16.9306C10.6631 17.3664 10.4379 17.9463 10.1648 18.285C9.85492 18.6694 9.38656 19.0645 9.02063 19.3983C8.89994 19.5083 8.76706 19.7214 8.63211 19.8585C8.28075 20.2154 7.91854 20.539 7.55514 20.8774C7.39481 21.0267 7.17277 21.3213 6.98294 21.5117C6.66064 21.8349 6.33265 22.1388 6.01151 22.4599C5.66689 22.8046 5.1629 23.3998 4.78877 23.6908C4.59254 23.6557 4.12975 24.1707 3.8512 24.2997L3.8959 24.3324C3.84573 24.3807 3.81657 24.402 3.78571 24.4654C2.89264 24.8511 1.93457 24.5728 1.25052 23.8422C0.446232 22.983 0.431765 22.1729 0.858443 21.0888C0.898971 20.9858 1.22501 20.6748 1.3311 20.563C2.93843 18.8696 4.62958 17.2523 6.25606 15.5764C6.87812 14.9354 7.36348 14.465 8.28282 14.3637ZM3.55091 23.1181C3.99906 22.9721 5.10728 21.6323 5.54181 21.2617C5.89201 20.963 6.36387 20.4184 6.70295 20.0793L8.24189 18.5382C8.45067 18.3302 8.87112 17.9665 9.0457 17.7188C9.1654 17.549 9.02909 17.3009 8.77097 17.2643C8.45444 17.3522 7.29648 18.6356 7.01076 18.9284L5.54928 20.3965L4.12924 21.8312C3.94011 22.0197 2.88457 22.8286 3.39344 23.0674C3.44354 23.091 3.49646 23.1081 3.55091 23.1181ZM2.46484 21.9192C2.6181 21.8367 3.37277 21.0103 3.56426 20.8187L6.3317 18.0394C6.76776 17.5999 7.56314 16.8925 7.8816 16.4055C7.91822 16.1809 7.67297 16.0379 7.48345 16.0603C7.21205 16.253 6.99765 16.5388 6.76044 16.777L5.121 18.418C4.63573 18.9092 4.13525 19.3742 3.66336 19.8849C3.3011 20.2384 2.91752 20.5798 2.57992 20.9572C2.39185 21.1675 2.11599 21.4168 2.0606 21.6992C2.01964 21.9081 2.26622 21.9649 2.42483 21.9289L2.43938 21.9257C2.44787 21.9235 2.45636 21.9214 2.46484 21.9192Z" fill="black"/>
<path d="M17.8374 6.06445C17.8952 6.09258 18.0522 6.17092 18.0937 6.20652C18.3064 6.38914 18.917 6.98079 19.0033 7.2094C18.9605 7.55986 17.9135 8.84497 17.6664 9.17417C17.5025 9.3926 17.3436 9.70422 17.1434 9.89148C16.7024 10.1886 15.8609 10.1783 15.4581 10.5084C14.7536 11.0935 14.2095 11.8347 13.5353 12.4576C13.1565 12.8075 12.8047 13.2974 12.384 13.6112C12.2282 13.7274 11.5322 14.4571 11.4573 14.4234C11.1348 14.2782 10.9198 13.8642 10.6162 13.6539C11.3235 12.9757 12.0004 12.2045 12.6996 11.5175L14.1726 10.0427C14.2857 9.9313 14.5126 9.79133 14.605 9.67368C14.9746 9.20369 14.9246 8.35493 15.2844 7.88682C15.4075 7.72668 15.7402 7.57952 15.8987 7.44661C16.0199 7.34499 16.282 7.03989 16.4342 6.98977C16.4979 6.98906 16.6701 7.01506 16.6833 7.00964C16.9113 6.91572 17.0282 6.65381 17.241 6.56594C17.4008 6.50002 17.4158 6.48533 17.4325 6.32893C17.5426 6.24155 17.7134 6.13477 17.8374 6.06445Z" fill="black"/>
<path d="M20.2882 1.46777C20.481 1.53095 21.2105 2.48894 21.4854 2.60676C21.7086 2.70244 22.2379 2.33151 22.4421 2.22158C22.6664 2.10264 22.8977 1.99739 23.1347 1.90639C22.9444 2.18037 22.8609 2.43072 22.7244 2.7353C22.5939 3.02661 22.4861 3.22048 22.3151 3.48469C22.692 3.86111 23.2536 4.47265 23.6286 4.79389C23.1472 4.71006 22.5881 4.64133 22.1011 4.58073C22.0609 4.58178 21.8976 4.54187 21.8482 4.53078C21.4995 5.0362 21.2783 5.59389 20.9619 6.15122C20.8984 5.54226 20.7889 4.92092 20.7037 4.31198C20.2554 4.27724 19.791 4.15991 19.3433 4.10732C19.2395 4.09511 19.1403 4.09165 19.0411 4.05625L19.0264 4.02138C19.1863 3.83232 20.3446 3.34748 20.4981 3.21333C20.544 3.09907 20.3289 1.69266 20.2882 1.46777Z" fill="black"/>
<path d="M21.202 10.0234C21.251 10.0394 22.0984 10.8623 22.2177 10.9726C22.5469 10.8429 23.2448 10.5373 23.5434 10.3765C23.4543 10.6041 22.9311 11.5171 22.935 11.6537C22.9369 11.7196 22.9678 11.775 23.0086 11.8246C23.1202 11.9604 23.2807 12.0674 23.406 12.1933C23.5936 12.3819 23.7588 12.5942 23.9451 12.7859C23.6602 12.7103 23.0721 12.6235 22.7683 12.61C22.6602 12.6068 22.5295 12.5917 22.42 12.5819C22.2861 12.8411 21.908 13.608 21.8356 13.8646C21.6658 13.3851 21.615 12.8871 21.5212 12.3844C21.2505 12.3152 20.3825 12.1593 20.1112 12.1589L20.0928 12.1346C20.1059 12.116 20.1123 12.098 20.1322 12.0905C20.5742 11.9242 20.9619 11.6766 21.3724 11.4431C21.3242 10.9928 21.2322 10.4528 21.202 10.0234Z" fill="black"/>
<path d="M12.3532 1.15796C12.5056 1.19332 13.1796 1.92596 13.3773 2.09628C13.7857 1.96321 14.3638 1.66424 14.7193 1.42625C14.5367 1.94715 14.2012 2.38873 14.059 2.80631C14.3559 3.14552 14.8252 3.50995 15.1012 3.88317C14.6858 3.81105 14.3414 3.70929 13.9116 3.6848C13.8116 3.67572 13.6998 3.67162 13.5986 3.66559C13.4519 3.93241 13.0548 4.75414 12.9762 5.02272C12.907 4.70165 12.8441 4.37924 12.7875 4.0557C12.7527 3.86002 12.7418 3.69169 12.6765 3.50221C12.173 3.39659 11.6476 3.31168 11.1338 3.28749C11.5472 3.13419 11.5975 3.06136 11.9703 2.84523C12.1048 2.7673 12.3852 2.6495 12.5511 2.56356C12.4724 2.10776 12.4301 1.62429 12.3532 1.15796Z" fill="black"/>
<path d="M16.086 12.7537C16.3124 12.9203 16.5167 13.2522 16.7972 13.436C17.0952 13.6312 17.7016 13.058 17.8792 13.083C17.8922 13.128 17.8875 13.1648 17.8664 13.2067C17.6928 13.5506 17.5751 13.7433 17.4686 14.1221C17.808 14.4573 17.9305 14.6381 18.3233 14.9511C18.0408 14.8989 17.5914 14.8333 17.3092 14.8133C16.991 14.76 16.9921 14.9154 16.8609 15.1905C16.735 15.4546 16.6758 15.5997 16.4895 15.8298C16.4754 15.4768 16.4018 15.0132 16.3374 14.6646C15.9431 14.5908 15.5637 14.4847 15.1641 14.4284C15.4522 14.2966 15.9781 14.0647 16.2309 13.9033C16.1896 13.6389 16.0806 13.0012 16.086 12.7537Z" fill="black" fill-opacity="0.988235"/>
<path d="M9.88882 6.53052C9.89286 6.53145 9.89697 6.53213 9.90093 6.53332C9.9075 6.53525 9.91389 6.53772 9.92039 6.53984C10.0223 6.57319 10.537 7.16711 10.6676 7.29006C10.8831 7.24084 11.5872 6.92183 11.7778 6.80537C11.5831 7.15996 11.4351 7.49653 11.2257 7.86619C11.4184 8.00422 11.8857 8.52798 12.0664 8.72104C11.7644 8.63459 11.3621 8.59675 11.046 8.57468C11.0087 8.56438 10.9731 8.56999 10.9341 8.57246C10.8095 8.66326 10.4176 9.42888 10.3495 9.61545C10.0937 8.11929 10.4789 8.51619 8.9707 8.23513C9.22639 8.07939 9.76618 7.76157 10.0518 7.68328C10.0283 7.42917 9.876 6.70522 9.88882 6.53052Z" fill="black" fill-opacity="0.988235"/>
<path d="M3.78516 24.4654C3.81602 24.4021 3.84518 24.3808 3.89535 24.3325L3.85065 24.2998C4.1292 24.1708 4.59199 23.6558 4.78822 23.6909C4.39024 24.0455 4.3077 24.2697 3.78516 24.4654Z" fill="black" fill-opacity="0.952941"/>
<path d="M16.4346 6.9897C16.741 6.85535 17.1051 6.51455 17.4328 6.32886C17.4162 6.48525 17.4012 6.49995 17.2414 6.56587C17.0285 6.65374 16.9117 6.91565 16.6837 7.00957C16.6704 7.01499 16.4982 6.98899 16.4346 6.9897Z" fill="black" fill-opacity="0.960784"/>
</g>
<defs>
<clipPath id="clip0_280_1173">
<rect width="25" height="25" fill="white"/>
</clipPath>
</defs>
</svg>
