<svg width="25" height="25" viewBox="0 0 25 25" fill="none" xmlns="http://www.w3.org/2000/svg">
<path d="M11.7897 0.00909634C14.3593 -0.0938371 17.1564 0.680685 19.2841 2.13606C22.016 4.00081 23.8962 6.87356 24.5116 10.1235C25.0887 13.2442 24.3756 16.6905 22.5813 19.3059C20.9015 21.7957 18.3647 23.5805 15.4539 24.3205C14.6927 24.5148 14.2007 24.5278 13.4689 24.6645C13.1587 24.5527 12.9827 24.4414 12.9754 24.0539C12.9554 22.9921 12.9645 21.9187 12.975 20.8571C12.9784 20.5136 13.1171 19.9461 13.3966 19.7301C14.638 18.7707 15.3673 17.4194 14.4287 15.9413C14.0783 15.392 13.522 15.0063 12.8847 14.8708C11.7048 14.5612 10.4614 15.3165 10.0266 16.4163C9.6158 17.3665 9.90716 18.4314 10.6382 19.1396C11.0554 19.5438 11.6496 19.9083 11.6923 20.5688C11.7055 21.097 11.7427 21.6995 11.7189 22.2227C11.6916 22.8261 11.8079 23.9143 11.5873 24.4604C11.4406 24.5754 11.3747 24.6113 11.1824 24.6213C10.8484 24.6389 10.4387 24.5686 10.1076 24.5114C7.97088 24.1447 5.89947 23.138 4.26558 21.7279C1.15619 19.0443 -0.461723 14.8201 0.115484 10.749C0.450936 8.38308 1.36079 6.19307 2.93023 4.3655C4.71182 2.2747 7.13631 0.833539 9.8243 0.267567C10.3225 0.162638 11.2955 0.0465385 11.7897 0.00909634ZM10.535 23.3898C10.5023 23.1742 10.5226 22.8676 10.5335 22.6429C10.3565 22.6313 10.2147 22.5893 10.0471 22.5321C8.84434 22.121 7.667 21.3753 6.82696 20.4178C5.49431 18.9197 4.82764 16.9443 4.97989 14.945C5.09546 12.9921 5.9948 11.1685 7.47393 9.88806C8.91341 8.623 10.787 7.96472 12.7014 8.05134C19.4648 8.56423 22.1919 16.5363 17.2008 21.0804C16.4622 21.7528 15.1646 22.444 14.1838 22.6538C14.2055 22.9126 14.2111 23.1275 14.1792 23.3873C15.0057 23.2072 15.6391 23.0665 16.4382 22.7565C18.5965 21.8946 20.4344 20.3847 21.6988 18.4348C23.3219 15.9388 23.8768 12.8965 23.2394 9.98831C22.6023 7.09692 20.8508 4.57336 18.365 2.96506C16.5412 1.81037 14.1271 1.06708 11.9606 1.20565C9.00896 1.30846 6.22102 2.58716 4.21748 4.75701C2.0922 7.07578 1.08336 9.80549 1.22669 12.9595C1.3818 15.9148 2.70845 18.6863 4.91294 20.6606C6.48941 22.0863 8.43965 23.033 10.535 23.3898ZM12.7302 13.6449C13.7294 13.7615 14.6335 14.2229 15.2625 15.0176C15.8692 15.7884 16.144 16.7691 16.0263 17.743C15.9194 18.6356 15.566 19.355 14.9061 19.973C14.7019 20.1642 14.3698 20.4366 14.2152 20.657C14.2115 20.8219 14.1554 21.2569 14.2387 21.348C14.3282 21.3818 14.394 21.3475 14.4755 21.3128C16.2389 20.5632 17.4809 19.4295 18.1686 17.5963C18.73 16.0734 18.6675 14.3903 17.9947 12.9132C17.316 11.3982 16.0609 10.2166 14.5079 9.63025C13.6936 9.32908 12.8249 9.20347 11.9586 9.26162C10.2735 9.37271 8.78641 10.1363 7.67444 11.4056C6.60401 12.6413 6.06216 14.2482 6.16575 15.8798C6.28179 17.5572 7.10113 19.1366 8.37806 20.219C8.71385 20.5036 10.0243 21.3763 10.4403 21.3724C10.5444 21.2609 10.5059 21.1594 10.5171 21.0194C10.5624 20.4561 9.97786 20.1961 9.60174 19.7983C8.97766 19.1384 8.70013 18.3785 8.66407 17.4714C8.6178 16.4873 8.96924 15.526 9.63931 14.8038C10.3975 13.9898 11.6099 13.4644 12.7302 13.6449Z" fill="black"/>
</svg>
