<svg width="27" height="24" viewBox="0 0 27 24" fill="none" xmlns="http://www.w3.org/2000/svg">
<g clip-path="url(#clip0_280_1205)">
<path d="M3.11823 0.0403416C3.60075 -0.0310307 9.19294 0.00235231 9.46287 0.0627191C9.67108 0.109268 9.80953 0.245409 9.94831 0.402258C10.2735 0.769757 10.53 1.24808 10.8056 1.65728C11.2759 2.35547 11.7718 3.03797 12.2204 3.75056L19.7268 3.75814C20.9467 3.75655 22.281 3.72023 23.4945 3.79752C23.9731 3.85528 24.3821 4.00051 24.7717 4.26899C26.6107 5.5365 26.2974 7.28131 26.2969 9.28739L26.2973 14.0448L26.2979 18.5737C26.2976 20.1432 26.5522 21.8601 25.2136 22.9691C24.5754 23.4979 24.0709 23.7169 23.2532 23.8223C21.691 23.8749 19.9515 23.8433 18.3794 23.8439L9.97459 23.8459L5.48446 23.8472C4.63564 23.8474 3.6517 23.8859 2.8234 23.7873C1.42148 23.5995 0.111963 22.3249 0.0377692 20.8803C-0.0183727 19.7873 0.00458752 18.6952 0.0049526 17.6081L0.00689927 11.4232L0.00454655 5.88399C0.00442486 5.56254 -0.00299834 5.23316 0.00422222 4.91546C0.0334289 3.62795 -0.180389 2.34439 0.724736 1.28762C1.42435 0.470816 2.06455 0.141388 3.11823 0.0403416Z" fill="black"/>
<path d="M3.15523 1.34015C3.49927 1.30074 4.66024 1.32801 5.05513 1.32841L8.98912 1.32674C9.05646 1.4379 9.19191 1.65181 9.27255 1.74426C9.98697 2.56371 10.8592 4.46806 11.6979 5.03309C12.6626 5.07629 13.8228 5.04662 14.7993 5.04589L20.0482 5.04736C21.0389 5.04683 22.1015 5.01915 23.0918 5.0606C23.4187 5.0743 23.8549 5.24211 24.1202 5.42945C24.5494 5.73785 24.84 6.20415 24.9288 6.72678C25.0359 7.35659 24.9993 8.55736 24.9991 9.25335L24.9962 13.5251L24.9995 18.1032C25.0001 18.9257 25.0187 19.7495 24.9727 20.5705C24.9167 21.5676 24.2282 22.3614 23.2487 22.523C22.785 22.602 21.2405 22.5676 20.7171 22.5667L15.8182 22.566L7.53969 22.5674C6.1228 22.5678 4.69728 22.5906 3.28108 22.5504C2.73057 22.5338 2.36309 22.329 1.96575 21.965C1.07657 21.1502 1.30596 19.5318 1.30564 18.3868L1.30507 13.8102L1.30617 6.99732C1.30649 5.81305 1.29379 4.63012 1.32637 3.44631C1.35874 2.26946 1.96879 1.50939 3.15523 1.34015Z" fill="white"/>
<path d="M9.91042 7.50056C10.1909 7.47574 10.544 7.48442 10.8311 7.48422C11.0502 7.66128 11.1488 7.79188 11.3104 8.01244C11.6546 7.84564 11.8775 7.79735 12.168 8.09816C12.5781 8.5226 13.0202 8.92557 13.403 9.37581L13.2707 9.94386C13.4288 10.0618 13.5809 10.2309 13.7196 10.3747C13.7294 10.8924 13.7366 11.6603 13.6454 12.1713C13.5663 12.6156 13.211 12.6001 12.8482 12.47C12.6428 12.1639 12.7659 11.2221 12.7973 10.8272C12.4056 10.4461 12.025 10.0412 11.6379 9.65237C11.2505 9.26327 10.8133 8.86805 10.4566 8.45796C10.1554 8.45999 8.99836 8.52636 8.89245 8.39571C8.11846 7.4411 9.64668 7.51316 9.91042 7.50056Z" fill="black"/>
<path d="M11.8669 14.0846C12.7501 14.0117 12.5502 14.6456 12.1106 15.0905C11.892 15.3117 11.6661 15.5561 11.4479 15.7809L11.4517 19.0902C11.7354 19.3605 12.3163 19.8537 12.456 20.1832C12.6377 20.612 12.2877 20.9656 11.8024 20.7368C11.4134 20.3372 10.9465 19.979 10.617 19.5282C10.4302 19.2727 10.4626 19.131 10.5003 18.8351C10.3335 18.7181 10.1492 18.5652 9.987 18.4376C9.98866 17.752 9.98683 17.0665 9.98145 16.3809C10.7683 15.7595 10.4378 16.2917 10.483 15.5672C10.4991 15.3101 11.5881 14.3198 11.8669 14.0846Z" fill="black"/>
<path d="M18.3581 9.11192C19.1363 9.0802 19.0911 9.46731 19.0966 10.1311C19.0997 10.507 19.0887 10.8923 19.0868 11.2689C19.0237 11.3345 18.8633 11.4936 18.8179 11.5626C18.5272 12.0036 19.0077 12.1034 18.5065 12.585C18.1143 12.9618 17.7473 13.4457 17.3035 13.7721C17.1962 13.851 16.7924 13.7124 16.6708 13.6768C16.2811 14.3051 15.7748 14.109 15.1091 14.0908C14.7979 14.0977 14.4849 14.1429 14.2493 13.9162C13.9471 13.6255 14.1355 13.1923 14.5451 13.1763C14.9726 13.1596 15.401 13.1838 15.83 13.19C16.1514 12.798 16.6235 12.4017 16.987 12.0394C17.3974 11.6304 17.7846 11.2161 18.1811 10.7936C18.1937 10.2912 17.9826 9.47224 18.3581 9.11192Z" fill="black"/>
<path d="M10.1716 12.9523C10.5509 12.9303 11.8215 12.8953 11.9775 13.1325C12.6799 14.2011 10.6043 13.9061 10.3983 13.8925C10.1408 14.2184 9.79977 14.4977 9.51094 14.7978C9.02315 15.3047 8.53216 15.8086 8.0414 16.3126C8.039 16.6226 8.04307 16.8224 8.0739 17.13C8.08258 17.2242 8.08967 17.3187 8.09514 17.4131C8.12168 17.9264 7.64338 18.2271 7.34174 17.9095C7.05872 17.6115 7.14033 16.195 7.1592 15.8194C7.27586 15.6736 7.48736 15.4847 7.62784 15.3513C7.44814 14.9294 7.37805 14.8312 7.75242 14.4738C8.16188 14.0831 8.5528 13.6443 8.99524 13.2912C9.15166 13.3461 9.33449 13.4286 9.48981 13.4936C9.52571 13.4276 9.5638 13.3629 9.604 13.2995C9.75649 13.0642 9.91287 13.0079 10.1716 12.9523Z" fill="black"/>
<path d="M8.44719 10.3894C9.05481 10.3655 9.7146 10.3735 10.3225 10.3819C10.4929 10.5971 10.5422 10.6706 10.6706 10.9147C11.0962 10.8832 11.3118 10.84 11.6223 11.2139C11.8371 11.4725 12.6331 12.1526 12.5872 12.4774C12.4352 13.5542 11.2541 12.2238 10.9836 11.8858L10.0142 11.8848L7.57678 11.8846C7.23697 12.2657 6.19689 13.6192 5.9556 12.3873C5.92592 12.2358 7.16067 11.0103 7.34771 10.8802C7.53309 10.8923 7.72209 10.9181 7.90691 10.9405C8.07764 10.6292 8.08949 10.4626 8.44719 10.3894Z" fill="black"/>
<path d="M12.8079 14.5775C13.8094 14.5207 13.4662 15.5334 13.4843 16.3127C13.7216 16.5194 14.1771 17.0251 14.4186 17.2716C14.8403 17.7025 15.5121 18.272 15.8645 18.7326C16.2043 18.6657 16.9471 18.5615 17.2452 18.6696C17.6708 18.8241 17.6302 19.3726 17.1746 19.5432C16.5818 19.5442 15.9965 19.5894 15.4052 19.582C15.3022 19.4934 15.1799 19.3675 15.0754 19.2691C14.762 18.9739 14.5009 19.4532 14.176 19.1269C13.7582 18.7075 13.3366 18.284 12.9409 17.849C12.8309 17.728 13.0143 17.3365 12.942 17.1948C12.7625 17.002 12.6811 16.9146 12.5533 16.6987C12.5261 16.2145 12.5658 15.6309 12.5767 15.1399C12.5828 14.8627 12.6097 14.751 12.8079 14.5775Z" fill="black"/>
<path d="M14.0453 6.34288C14.1035 6.33706 14.2638 6.33244 14.3044 6.3525C14.7111 6.55345 15.6033 7.46528 15.7896 7.82409C15.7828 7.96761 15.7515 8.17724 15.7342 8.32497C15.9434 8.43518 16.044 8.51626 16.2284 8.65839C16.2411 9.35707 16.2432 10.0559 16.235 10.7547C15.7215 11.1558 15.7249 10.956 15.7502 11.6522C15.5311 11.9713 14.9817 12.4724 14.6848 12.751C14.6054 12.8242 14.3635 13.0615 14.2537 13.0373C13.0978 12.7825 14.4252 11.7702 14.7684 11.3553C14.7985 10.3037 14.7836 9.06176 14.7651 8.00511C14.3588 7.55988 13.3241 6.90391 14.0453 6.34288Z" fill="black"/>
<path d="M18.6078 15.2624C18.8402 14.8968 19.7076 13.8905 20.1804 14.292C20.4144 14.6853 19.9811 15.1175 19.7434 15.3843C19.4833 15.6659 19.1976 15.9813 18.882 16.1958C18.685 16.2066 18.4548 16.2072 18.2551 16.2122C18.1471 16.421 18.0949 16.496 17.9537 16.6822C17.3607 16.7188 16.5264 16.7038 15.9268 16.6837L15.6147 16.2195C15.1497 16.2133 14.8925 16.1717 14.5611 15.8124C14.1978 15.4185 13.1444 14.5865 14.0172 14.1611C14.431 14.2057 15.0261 14.9199 15.3041 15.2447C16.3319 15.2895 17.5647 15.2608 18.6078 15.2624Z" fill="black"/>
</g>
<defs>
<clipPath id="clip0_280_1205">
<rect width="27" height="24" fill="white"/>
</clipPath>
</defs>
</svg>
