<svg width="25" height="25" viewBox="0 0 25 25" fill="none" xmlns="http://www.w3.org/2000/svg">
<path d="M12.6126 12.1118C12.8179 12.1112 12.9308 12.2111 13.0733 12.3366L13.1586 12.6173C13.0642 12.8935 12.9867 12.9897 12.7063 13.074C12.3425 13.0566 12.2539 12.8918 12.1426 12.5842C12.1633 12.5305 12.1866 12.478 12.2124 12.4266C12.3136 12.224 12.4082 12.1808 12.6126 12.1118Z" fill="#FEFEFE"/>
<path d="M12.5811 0.908203C12.8877 0.909348 13.1613 1.11192 13.1953 1.42676C13.2638 2.06157 13.2255 2.71135 13.2471 3.35156C13.2942 4.75027 13.4301 6.17412 13.7637 7.53516C13.9188 8.02586 14.1457 8.75083 14.6064 9.02539C15.4 9.49819 16.2625 7.84753 16.8984 8.20898C17.6502 8.63628 16.5643 9.38167 16.3682 9.7998C16.2679 10.0137 16.1112 10.2363 16.1943 10.5137C16.2818 10.8398 16.6318 11.0355 16.9102 11.1807C17.7993 11.6012 19.1547 11.827 20.1465 11.918C20.9648 11.985 21.7849 12.0321 22.6055 12.0596C23.0656 12.0735 23.7975 11.9975 24.2236 12.1963C24.4124 12.3085 24.5549 12.6133 24.4141 12.8047C24.1293 13.1919 23.7278 13.143 23.3125 13.1465C22.9236 13.1467 22.5343 13.1515 22.1455 13.1611C20.7709 13.2031 19.4231 13.3009 18.082 13.6143C17.5554 13.7373 16.5602 14.0283 16.2686 14.5107C15.8759 15.1608 16.8036 15.8526 17.1016 16.3379C17.1238 16.3744 17.161 16.5212 17.1729 16.5693C17.171 16.5753 17.1699 16.582 17.168 16.5879C17.1143 16.7511 17.0238 16.9262 16.8623 17.0059C16.4665 17.2011 16.0142 16.6635 15.7314 16.4463C15.5597 16.3145 15.3591 16.1876 15.1514 16.123C14.9705 16.0669 14.7817 16.0689 14.6123 16.1602C13.5104 16.7544 13.2828 20.6119 13.251 21.7227C13.2365 22.2292 13.2851 23.5176 13.1592 23.9131C13.1025 24.0906 12.9375 24.1942 12.7803 24.2715C12.7048 24.2951 12.6429 24.3141 12.5654 24.2891C12.372 24.2264 12.2189 24.0959 12.167 23.8945C12.0581 23.4723 12.1124 22.5105 12.1035 22.0312C12.079 20.7105 11.8202 17.9907 11.252 16.8516C11.1102 16.5676 10.8957 16.2086 10.5762 16.1074C9.92447 15.9012 9.33268 16.772 8.8252 17.0273C8.73042 17.0749 8.6327 17.0809 8.53223 17.0459C8.40393 17.0012 8.27798 16.8823 8.2207 16.7598C7.99808 16.2826 8.91541 15.6028 9.0957 15.0801C9.15527 14.9071 9.15862 14.7247 9.07617 14.5586C8.50062 13.4003 4.38462 13.1876 3.17578 13.1533C2.65425 13.1386 1.69796 13.226 1.25098 13.0703C1.0462 12.999 0.950347 12.8745 0.861328 12.6846C0.878853 12.3871 1.03493 12.1069 1.34473 12.0947C3.51528 12.0107 5.74211 12.0552 7.84277 11.4092C8.17094 11.3082 8.94937 10.964 9.08398 10.6104C9.37319 9.85042 8.36505 9.29843 8.14844 8.66211C8.18063 8.53275 8.2228 8.38754 8.31836 8.28906C8.73344 7.87149 9.25316 8.50292 9.58105 8.74023C10.0084 9.04937 10.1003 9.10539 10.6143 9.08105C11.9969 8.32298 12.0802 3.63838 12.1074 2.15137C12.116 1.68233 12.0054 1.07002 12.5811 0.908203Z" fill="black"/>
</svg>
